<?xml version="1.0" encoding="utf-8"?>
<!-- Generator: Adobe Illustrator 19.0.0, SVG Export Plug-In . SVG Version: 6.00 Build 0)  -->
<svg version="1.1" id="logo" xmlns="http://www.w3.org/2000/svg" xmlns:xlink="http://www.w3.org/1999/xlink" x="0px" y="0px"
	 viewBox="-223 432.2 576 161.8" style="enable-background:new -223 432.2 576 161.8;" xml:space="preserve">
<style type="text/css">
	.st0{fill:#FFFFFF;}
</style>
<g>
	<g>
		<path class="st0" d="M-207.7,575.6c-2.6,0-5-1.4-6.4-2.9v2.4h-4.9v-32.7l4.9-2.6v12.3c1.8-1.7,4-2.9,6.6-2.9c5.5,0,9.8,4,9.8,13.6
			C-197.7,571.5-202.4,575.6-207.7,575.6z M-208.4,553.8c-2.4,0-4.4,1.6-5.8,3.2v10.7c1.1,1.5,3.4,3.3,5.9,3.3
			c3.6,0,5.5-2.7,5.5-8.1C-202.6,556.6-204.7,553.8-208.4,553.8z"/>
		<path class="st0" d="M-184.2,584h-5.3l3.7-9.4l-9.3-24.9h5.5l4.2,12.4c0.8,2.2,1.9,6,2.2,7.4c0.4-1.5,1.5-5.1,2.3-7.3l4.3-12.5
			h5.3L-184.2,584z"/>
		<path class="st0" d="M-135.5,561.3l6.9,13.8h-5.8l-6.7-13.4h-7.6v13.4h-5v-33.8h14.8c5.9,0,10.9,3.1,10.9,10.1
			C-128,556.8-130.9,560.1-135.5,561.3z M-138.9,546h-9.9v10.9h9.9c3.4,0,5.8-1.7,5.8-5.4C-133.2,548-135.5,546-138.9,546z"/>
		<path class="st0" d="M-102.4,564.2h-16.8c0.5,4.9,3.3,7,6.4,7c2.1,0,3.8-0.8,5.5-2l3,3.2c-2.2,2.1-4.9,3.3-8.8,3.3
			c-5.9,0-11-4.8-11-13.2c0-8.6,4.5-13.2,11.1-13.2c7.2,0,10.7,5.8,10.7,12.7C-102.2,562.8-102.3,563.6-102.4,564.2z M-113.2,553.7
			c-3.3,0-5.4,2.3-5.8,6.4h11.8C-107.5,556.6-109.1,553.7-113.2,553.7z"/>
		<path class="st0" d="M-81.4,575.1v-2.4c-1.8,1.7-4,3-6.6,3c-5.5,0-9.8-4-9.8-13.6c0-8.7,4.7-12.8,10-12.8c2.6,0,5,1.4,6.4,2.9
			v-9.7l4.9-2.6v35.2L-81.4,575.1L-81.4,575.1z M-81.4,557.1c-1.1-1.5-3.4-3.3-5.9-3.3c-3.6,0-5.5,2.7-5.5,8.1c0,6.4,2,9.2,5.7,9.2
			c2.4,0,4.5-1.6,5.8-3.2L-81.4,557.1L-81.4,557.1z"/>
		<path class="st0" d="M-36.1,575.1v-15.2h-15.6v15.2h-5.1v-33.8h5.1v13.6h15.6v-13.7h5.1V575L-36.1,575.1L-36.1,575.1z"/>
		<path class="st0" d="M-9,575.1v-2.5c-1.7,1.7-4.2,3-7,3c-4.1,0-8.8-2.3-8.8-8.6c0-5.7,4.4-8.2,10.1-8.2c2.4,0,4.2,0.3,5.7,1v-1.9
			c0-2.8-1.7-4.3-4.8-4.3c-2.6,0-4.6,0.5-6.6,1.6l-1.9-3.8c2.4-1.5,5.1-2.3,8.7-2.3c5.7,0,9.5,2.8,9.5,8.5V575L-9,575.1L-9,575.1z
			 M-9,564.3c-1.4-0.7-3.1-1.1-5.8-1.1c-3.2,0-5.2,1.5-5.2,3.8c0,2.5,1.6,4.2,4.9,4.2c2.7,0,5-1.6,6.1-3.2V564.3z"/>
		<path class="st0" d="M14.5,574.5c-1.2,0.7-2.9,1.2-4.9,1.2c-3.5,0-5.7-2.2-5.7-6.7v-14.7H0.3v-4.5h3.6v-7.3l4.9-2.6v9.9h6.3v4.5
			H8.8v13.8c0,2.4,0.8,3,2.6,3c1.3,0,2.8-0.5,3.7-1L14.5,574.5z"/>
	</g>
	<g>
		<path class="st0" d="M29.2,547.7c-0.2,0.5-0.5,1-0.9,1.3c-0.4,0.4-0.8,0.6-1.3,0.9c-0.5,0.2-1.1,0.3-1.7,0.3s-1.1-0.1-1.7-0.3
			c-0.5-0.2-1-0.5-1.3-0.9c-0.4-0.4-0.7-0.8-0.9-1.3s-0.3-1.1-0.3-1.7c0-0.6,0.1-1.2,0.3-1.7s0.5-1,0.9-1.3c0.4-0.4,0.8-0.7,1.3-0.9
			s1.1-0.3,1.7-0.3s1.2,0.1,1.7,0.3s1,0.5,1.3,0.9c0.4,0.4,0.7,0.8,0.9,1.3s0.3,1.1,0.3,1.7C29.5,546.7,29.4,547.2,29.2,547.7z
			 M28.6,544.5c-0.2-0.4-0.4-0.8-0.8-1.2c-0.3-0.3-0.7-0.6-1.1-0.7c-0.4-0.2-0.9-0.3-1.4-0.3s-1,0.1-1.4,0.3s-0.8,0.4-1.2,0.7
			c-0.3,0.3-0.6,0.7-0.8,1.2c-0.2,0.4-0.3,0.9-0.3,1.5c0,0.5,0.1,1,0.3,1.5c0.2,0.4,0.4,0.8,0.8,1.2c0.3,0.3,0.7,0.6,1.2,0.7
			c0.4,0.2,0.9,0.3,1.4,0.3s1-0.1,1.4-0.3s0.8-0.4,1.1-0.7s0.6-0.7,0.8-1.2s0.3-0.9,0.3-1.5C28.9,545.5,28.8,545,28.6,544.5z
			 M26.9,545.8c-0.2,0.2-0.5,0.4-0.8,0.4l1,2h-0.7l-1-1.9h-1v1.9h-0.6v-4.6h1.9c0.4,0,0.8,0.1,1.1,0.3s0.4,0.6,0.4,1
			C27.2,545.3,27.1,545.6,26.9,545.8z M26.3,544.4c-0.2-0.1-0.4-0.2-0.7-0.2h-1.2v1.6h1.2c0.6,0,1-0.3,1-0.8
			C26.5,544.7,26.5,544.5,26.3,544.4z"/>
	</g>
</g>
<g>
	<path class="st0" d="M-69.4,499.8c-1.2,0-2.5-0.3-3.4-1.4l-38.7-48.1v49.1h-8.8v-60.5c0-2.4,2.1-4.3,4.5-4.3c1.4,0,2.6,0.4,3.5,1.5
		l38.6,48.1v-49h8.8v60.4C-64.9,498.1-67,499.8-69.4,499.8"/>
	<path class="st0" d="M3.5,500.4c-8.8,0-18-1.7-26.6-4.8l2.1-6.9c7.9,2.4,16.5,4.1,24.5,4.1c11.1,0,16.9-3.8,16.9-9.1
		c0-4.8-4.5-7.2-20-14.2c-15.5-6.9-21.6-11.4-21.6-20c0-10.9,8.8-15.3,25.4-15.3c6.9,0,17.5,1.3,23.6,3.1l-1.4,7.1
		c-6.7-1.5-15.1-2.6-22-2.6c-11.7,0-16.5,2.1-16.5,7.4c0,5.2,3.5,7.4,19.9,14.6c17.3,7.6,21.7,11.5,21.7,19.4
		C29.6,494.7,18.2,500.4,3.5,500.4"/>
</g>
<rect x="71.4" y="435.2" class="st0" width="9.1" height="64.1"/>
<g>
	<path class="st0" d="M158,470.3h-22.6v21.8H158c7.7,0,12.4-4.6,12.4-11.1C170.4,474.9,165.5,470.3,158,470.3 M153.6,442.5h-18.2
		V463h18.2c7.3,0,12.6-4.4,12.6-10.6C166.2,446.4,161.6,442.5,153.6,442.5 M158.1,499.4h-27.2c-2.6,0-4.6-1.9-4.6-4.3v-55.5
		c0-2.3,2-4.3,4.6-4.3h22.5c13.8,0,22,6.5,22,16.6c0,5.5-3.4,10.6-8.6,13.6c7.7,2.2,12.9,8.3,12.9,15.6
		C179.7,491.2,170.8,499.4,158.1,499.4"/>
	<path class="st0" d="M223.5,499.4c-2.5,0-4.5-2-4.5-4.3v-59.9h9.1v56.3h36.3v7.8h-40.9L223.5,499.4L223.5,499.4z"/>
	<path class="st0" d="M326.5,500.4c-18.6,0-29.8-6.5-29.8-19.7c0-6.3,3.7-12.2,10.9-15c-5.8-3.5-8.8-8.4-8.8-13.8
		c0-11.9,9.7-17.6,27.9-17.6c6.1,0,14.7,0.7,21.9,2.2l-1,7.1c-7.6-1.2-14.7-1.8-21.6-1.8c-11.8,0-18.1,3.1-18.1,10.5
		c0,5.9,5.8,10.5,13.5,10.5H337c2.2,0,3.9,1.6,3.9,3.7s-1.7,3.8-3.9,3.8h-16.8c-8.8,0-14.4,4.1-14.4,10.5c0,9.3,9.1,12.1,20.5,12.1
		c6.2,0,14.6-0.8,21.4-2.3l1.3,7C342.5,499.3,334,500.4,326.5,500.4"/>
	<path class="st0" d="M-188.1,447.2l16,37.9l-24.1-18.2L-188.1,447.2z M-159.7,493.9l-24.6-56.9c-0.7-1.6-2.1-2.5-3.8-2.5
		s-3.2,0.9-3.9,2.5l-27,62.3h9.2l10.7-25.7l31.9,24.8c1.3,1,2.2,1.4,3.4,1.4c2.4,0,4.5-1.7,4.5-4.2
		C-159.3,495.2-159.5,494.5-159.7,493.9"/>
</g>
</svg>
